<mxfile host="app.diagrams.net" modified="2023-09-22T10:17:20.466Z" agent="Mozilla/5.0 (Windows NT 10.0; Win64; x64) AppleWebKit/537.36 (KHTML, like Gecko) Chrome/116.0.0.0 Safari/537.36 Edg/116.0.1938.81" etag="AJ5v0ewUahy9hVPmXHLf" version="21.8.0" type="github">
  <diagram name="第 1 页" id="Y-x704djOk2O1U12Rxj6">
    <mxGraphModel dx="1379" dy="796" grid="1" gridSize="10" guides="1" tooltips="1" connect="1" arrows="1" fold="1" page="1" pageScale="1" pageWidth="827" pageHeight="1169" math="0" shadow="0">
      <root>
        <mxCell id="0" />
        <mxCell id="1" parent="0" />
        <mxCell id="Y-w1w2HIqNdvighr2r8I-1" value="IF" style="rounded=0;whiteSpace=wrap;html=1;" vertex="1" parent="1">
          <mxGeometry x="120" y="280" width="80" height="40" as="geometry" />
        </mxCell>
        <mxCell id="Y-w1w2HIqNdvighr2r8I-2" value="EX" style="rounded=0;whiteSpace=wrap;html=1;" vertex="1" parent="1">
          <mxGeometry x="240" y="280" width="80" height="40" as="geometry" />
        </mxCell>
        <mxCell id="Y-w1w2HIqNdvighr2r8I-3" value="A" style="text;html=1;align=center;verticalAlign=middle;resizable=0;points=[];autosize=1;strokeColor=none;fillColor=none;" vertex="1" parent="1">
          <mxGeometry x="160" y="370" width="30" height="30" as="geometry" />
        </mxCell>
        <mxCell id="Y-w1w2HIqNdvighr2r8I-4" value="A" style="text;html=1;align=center;verticalAlign=middle;resizable=0;points=[];autosize=1;strokeColor=none;fillColor=none;" vertex="1" parent="1">
          <mxGeometry x="200" y="400" width="30" height="30" as="geometry" />
        </mxCell>
        <mxCell id="Y-w1w2HIqNdvighr2r8I-5" value="B" style="text;html=1;align=center;verticalAlign=middle;resizable=0;points=[];autosize=1;strokeColor=none;fillColor=none;" vertex="1" parent="1">
          <mxGeometry x="160" y="400" width="30" height="30" as="geometry" />
        </mxCell>
        <mxCell id="Y-w1w2HIqNdvighr2r8I-6" value="A" style="text;html=1;align=center;verticalAlign=middle;resizable=0;points=[];autosize=1;strokeColor=none;fillColor=none;" vertex="1" parent="1">
          <mxGeometry x="200" y="440" width="30" height="30" as="geometry" />
        </mxCell>
        <mxCell id="Y-w1w2HIqNdvighr2r8I-7" value="C" style="text;html=1;align=center;verticalAlign=middle;resizable=0;points=[];autosize=1;strokeColor=none;fillColor=none;" vertex="1" parent="1">
          <mxGeometry x="160" y="440" width="30" height="30" as="geometry" />
        </mxCell>
        <mxCell id="Y-w1w2HIqNdvighr2r8I-10" value="" style="edgeStyle=orthogonalEdgeStyle;rounded=0;orthogonalLoop=1;jettySize=auto;html=1;" edge="1" parent="1" source="Y-w1w2HIqNdvighr2r8I-8" target="Y-w1w2HIqNdvighr2r8I-9">
          <mxGeometry relative="1" as="geometry" />
        </mxCell>
        <mxCell id="Y-w1w2HIqNdvighr2r8I-8" value="send_phase" style="rounded=0;whiteSpace=wrap;html=1;" vertex="1" parent="1">
          <mxGeometry x="80" y="520" width="160" height="40" as="geometry" />
        </mxCell>
        <mxCell id="Y-w1w2HIqNdvighr2r8I-12" value="" style="edgeStyle=orthogonalEdgeStyle;rounded=0;orthogonalLoop=1;jettySize=auto;html=1;" edge="1" parent="1" source="Y-w1w2HIqNdvighr2r8I-9" target="Y-w1w2HIqNdvighr2r8I-11">
          <mxGeometry relative="1" as="geometry" />
        </mxCell>
        <mxCell id="Y-w1w2HIqNdvighr2r8I-9" value="dependency_phase" style="rounded=0;whiteSpace=wrap;html=1;" vertex="1" parent="1">
          <mxGeometry x="80" y="600" width="160" height="40" as="geometry" />
        </mxCell>
        <mxCell id="Y-w1w2HIqNdvighr2r8I-18" value="" style="edgeStyle=orthogonalEdgeStyle;rounded=0;orthogonalLoop=1;jettySize=auto;html=1;" edge="1" parent="1" source="Y-w1w2HIqNdvighr2r8I-11" target="Y-w1w2HIqNdvighr2r8I-17">
          <mxGeometry relative="1" as="geometry" />
        </mxCell>
        <mxCell id="Y-w1w2HIqNdvighr2r8I-11" value="process_phase" style="rounded=0;whiteSpace=wrap;html=1;" vertex="1" parent="1">
          <mxGeometry x="80" y="680" width="160" height="40" as="geometry" />
        </mxCell>
        <mxCell id="Y-w1w2HIqNdvighr2r8I-13" value="产生msg优先级=0" style="text;html=1;align=center;verticalAlign=middle;resizable=0;points=[];autosize=1;strokeColor=none;fillColor=none;" vertex="1" parent="1">
          <mxGeometry x="260" y="525" width="120" height="30" as="geometry" />
        </mxCell>
        <mxCell id="Y-w1w2HIqNdvighr2r8I-14" value="产生msg优先级=1" style="text;html=1;align=center;verticalAlign=middle;resizable=0;points=[];autosize=1;strokeColor=none;fillColor=none;" vertex="1" parent="1">
          <mxGeometry x="260" y="680" width="120" height="30" as="geometry" />
        </mxCell>
        <mxCell id="Y-w1w2HIqNdvighr2r8I-17" value="resp_phase" style="rounded=0;whiteSpace=wrap;html=1;" vertex="1" parent="1">
          <mxGeometry x="80" y="760" width="160" height="40" as="geometry" />
        </mxCell>
        <mxCell id="Y-w1w2HIqNdvighr2r8I-19" value="产生msg优先级=2" style="text;html=1;align=center;verticalAlign=middle;resizable=0;points=[];autosize=1;strokeColor=none;fillColor=none;" vertex="1" parent="1">
          <mxGeometry x="260" y="760" width="120" height="30" as="geometry" />
        </mxCell>
        <mxCell id="Y-w1w2HIqNdvighr2r8I-20" value="src&lt;br&gt;dst&lt;br&gt;req&lt;br&gt;payload&lt;br&gt;prior&lt;br&gt;tsend&lt;br&gt;trecieve" style="rounded=0;whiteSpace=wrap;html=1;align=left;" vertex="1" parent="1">
          <mxGeometry x="480" y="525" width="80" height="105" as="geometry" />
        </mxCell>
        <mxCell id="Y-w1w2HIqNdvighr2r8I-21" value="msg" style="text;html=1;align=center;verticalAlign=middle;resizable=0;points=[];autosize=1;strokeColor=none;fillColor=none;" vertex="1" parent="1">
          <mxGeometry x="480" y="490" width="50" height="30" as="geometry" />
        </mxCell>
      </root>
    </mxGraphModel>
  </diagram>
</mxfile>
